<?xml version="1.0" encoding="iso-8859-1"?>
<!-- Generator: Adobe Illustrator 15.1.0, SVG Export Plug-In . SVG Version: 6.00 Build 0)  -->
<!DOCTYPE svg PUBLIC "-//W3C//DTD SVG 1.1//EN" "http://www.w3.org/Graphics/SVG/1.1/DTD/svg11.dtd">
<svg version="1.1" xmlns="http://www.w3.org/2000/svg" xmlns:xlink="http://www.w3.org/1999/xlink" x="0px" y="0px"
	 width="47.999px" height="48px" viewBox="0 0 47.999 48" style="enable-background:new 0 0 47.999 48;" xml:space="preserve">
<g id="_x30_49_x5F_Jason">
	<path style="fill-rule:evenodd;clip-rule:evenodd;fill:#000000;" d="M47.999,42.09c0,3.264-2.646,5.91-5.91,5.91H5.91
		C2.646,48,0,45.354,0,42.09V5.911C0,2.646,2.646,0,5.91,0h36.179c3.265,0,5.91,2.646,5.91,5.911V42.09z"/>
	<path style="fill:#C4DAE9;" d="M36.674,14.579c0,0-0.475-1.513-1.297-3.07c-0.025-0.049-0.055-0.099-0.082-0.148
		c-0.092-0.17-0.185-0.341-0.285-0.51c-0.003-0.002-0.004-0.005-0.006-0.007c0-0.001,0-0.002,0-0.002
		c-0.014-0.029-0.036-0.053-0.05-0.08C33.32,7.697,29.253,5.52,24.482,5.52c-0.002,0-0.002,0-0.002,0c-0.002,0-0.002,0-0.002,0
		c-4.772,0-8.84,2.177-10.472,5.241c-0.014,0.027-0.038,0.051-0.051,0.079c-0.002,0.001-0.002,0.002-0.002,0.003
		c-0.002,0.002-0.004,0.005-0.004,0.007c-0.102,0.169-0.194,0.339-0.285,0.51c-0.026,0.05-0.056,0.099-0.084,0.148
		c-0.819,1.557-1.294,3.07-1.294,3.07c-1.352,3.155-1.032,10.426-1.032,10.603c-0.034,5.625,4.539,12.021,5.771,14.165
		c0.034,0.071,0.09,0.136,0.13,0.206c0.108,0.191,0.212,0.383,0.355,0.563c0.13,0.167,0.293,0.323,0.448,0.479
		c0.082,0.082,0.149,0.17,0.239,0.246c0.2,0.184,0.431,0.35,0.664,0.512c0.065,0.048,0.121,0.101,0.192,0.146
		c0.225,0.149,0.469,0.28,0.716,0.412c0.094,0.049,0.179,0.106,0.273,0.155c0.202,0.098,0.416,0.18,0.623,0.266
		c0.154,0.063,0.303,0.135,0.46,0.193c0.144,0.051,0.29,0.086,0.438,0.133c0.23,0.071,0.455,0.149,0.689,0.205
		c0.085,0.02,0.165,0.03,0.25,0.048c0.292,0.063,0.587,0.126,0.878,0.161c0.137,0.019,0.268,0.017,0.403,0.027
		c0.23,0.018,0.464,0.045,0.687,0.045c0.004,0,0.006,0,0.008,0s0.002,0,0.004,0c0.226,0,0.457-0.027,0.689-0.045
		c0.135-0.011,0.267-0.009,0.402-0.027c0.292-0.035,0.587-0.098,0.883-0.161c0.081-0.019,0.163-0.028,0.248-0.048
		c0.231-0.057,0.458-0.134,0.689-0.207c0.146-0.045,0.294-0.08,0.438-0.131c0.154-0.059,0.303-0.131,0.457-0.193
		c0.209-0.086,0.422-0.168,0.623-0.266c0.094-0.049,0.181-0.106,0.273-0.155c0.246-0.132,0.49-0.263,0.717-0.412
		c0.069-0.045,0.126-0.098,0.193-0.146c0.23-0.162,0.461-0.328,0.662-0.51c0.091-0.078,0.159-0.167,0.242-0.25
		c0.154-0.155,0.316-0.311,0.447-0.478c0.142-0.181,0.247-0.372,0.354-0.563c0.041-0.07,0.099-0.135,0.13-0.206
		c1.234-2.144,5.806-8.54,5.772-14.165C37.703,25.005,38.025,17.733,36.674,14.579z"/>
	<g>
		<circle cx="17.979" cy="25.082" r="3"/>
		<circle cx="30.979" cy="25.082" r="3"/>
	</g>
	<polygon style="fill:#663D52;" points="18.948,20.166 30.011,20.166 24.479,23.249 	"/>
	<g>
		<polygon style="fill:#663D52;" points="17.792,33.02 21.667,28.375 16.292,30.73 		"/>
		<polygon style="fill:#663D52;" points="31.167,33.02 27.292,28.375 32.667,30.73 		"/>
	</g>
	<circle style="fill:#9D6078;" cx="24.479" cy="7.895" r="0.922"/>
	<g>
		<circle style="fill:#9D6078;" cx="21.896" cy="17.895" r="0.922"/>
		<circle style="fill:#9D6078;" cx="27.063" cy="17.895" r="0.922"/>
		<circle style="fill:#9D6078;" cx="18.396" cy="9.895" r="0.922"/>
		<circle style="fill:#9D6078;" cx="18.396" cy="12.895" r="0.922"/>
		<circle style="fill:#9D6078;" cx="18.396" cy="15.895" r="0.922"/>
		<g>
			<circle style="fill:#9D6078;" cx="30.563" cy="9.895" r="0.922"/>
			<circle style="fill:#9D6078;" cx="30.563" cy="12.895" r="0.922"/>
			<circle stylePrimary_Container.jpg="fill:#9D6078;" cx="30.563" cy="15.895" r="0.922"/>
		</g>
	</g>
	<g>
		<g>
			<circle style="fill:#9D6078;" cx="26.979" cy="33.541" r="0.922"/>
			<circle style="fill:#9D6078;" cx="26.979" cy="36.541" r="0.922"/>
			<circle style="fill:#9D6078;" cx="26.979" cy="39.541" r="0.922"/>
		</g>
		<g>
			<circle style="fill:#9D6078;" cx="21.979" cy="33.541" r="0.922"/>
			<circle style="fill:#9D6078;" cx="21.979" cy="36.541" r="0.922"/>
			<circle style="fill:#9D6078;" cx="21.979" cy="39.541" r="0.922"/>
		</g>
	</g>
</g>
<g id="Layer_1">
</g>
</svg>
