<?xml version="1.0" encoding="iso-8859-1"?>
<!-- Generator: Adobe Illustrator 15.1.0, SVG Export Plug-In . SVG Version: 6.00 Build 0)  -->
<!DOCTYPE svg PUBLIC "-//W3C//DTD SVG 1.1//EN" "http://www.w3.org/Graphics/SVG/1.1/DTD/svg11.dtd">
<svg version="1.1" xmlns="http://www.w3.org/2000/svg" xmlns:xlink="http://www.w3.org/1999/xlink" x="0px" y="0px" width="48px"
	 height="48px" viewBox="0 0 48 48" style="enable-background:new 0 0 48 48;" xml:space="preserve">
<g id="_x30_38_x5F_Rorschach">
	<path style="fill-rule:evenodd;clip-rule:evenodd;fill:#ED971F;" d="M48,42.09c0,3.264-2.646,5.91-5.911,5.91H5.911
		C2.646,48,0,45.354,0,42.09V5.911C0,2.646,2.646,0,5.911,0h36.178C45.354,0,48,2.646,48,5.911V42.09z"/>
	<path style="fill:#EEEFEF;" d="M34.658,19.65c0,0-0.524-1.593-1.407-3.012c-1.355-2.503-4.82-4.284-8.884-4.284
		c-4.066,0-7.533,1.785-8.885,4.293c-0.88,1.416-1.405,3.003-1.405,3.003c-1.139,2.541-0.872,6.754-0.87,6.898
		c0.054,2.724,1.629,6.053,1.629,6.053s2.201,5.271,3.243,6.998c0.893,1.798,3.878,3.059,6.295,3.059
		c2.447,0,5.454-1.295,6.326-3.131c1.083-1.795,3.2-6.926,3.2-6.926s1.575-3.329,1.629-6.053
		C35.532,26.404,35.798,22.191,34.658,19.65z"/>
	<g>
		<path d="M32.348,24.769c-0.801-0.08-1.7,0.537-2.121,0.714c-0.42,0.176-1.291-0.161-1.712-0.75
			c-0.349-0.486-3.032-1.124-4.14-1.116h-0.014c-1.105-0.007-3.791,0.63-4.14,1.116c-0.421,0.589-1.292,0.926-1.712,0.75
			c-0.421-0.177-1.32-0.794-2.121-0.714c-1.28,0.129-1.719,2.007-0.579,2.738c0,0,0.687,0.216,0.637,1.538
			c-0.084,2.268,2.158,4.191,3.883,2.936c1.721-1.254,1.606-2.322,1.209-3.219c-0.363-0.819-0.188-1.864,0.524-2.48
			c0.71-0.617,0.938-0.693,1.109-0.521c0.295,0.3-0.32,0.554-0.188,0.907c0.137,0.363,0.523,0.358,0.904-0.01
			c0.233-0.229,0.384-0.281,0.462-0.287c0.003,0,0.008,0,0.012,0l0,0l0,0c0.002,0,0.004,0,0.008,0c0.002,0,0.004,0,0.006,0l0,0l0,0
			c0.004,0,0.009,0,0.013,0c0.077,0.006,0.228,0.059,0.461,0.287c0.381,0.368,0.769,0.373,0.904,0.01
			c0.132-0.354-0.483-0.607-0.188-0.907c0.173-0.173,0.399-0.097,1.109,0.521c0.71,0.616,0.888,1.661,0.524,2.48
			c-0.397,0.896-0.512,1.965,1.209,3.219c1.725,1.256,3.969-0.668,3.883-2.936c-0.05-1.322,0.637-1.538,0.637-1.538
			C34.066,26.775,33.628,24.897,32.348,24.769z"/>
		<g>
			<path d="M29.53,34.121c-0.236-1.293-1.031-1.5-1.928-1.318c-0.9,0.184-1.563,0.684-1.324,1.976
				c0.092,0.504,0.735,0.986,0.592,1.522c-0.147,0.553-1.039,0.752-1.39,1.247c-0.604,0.849-0.402,1.372,0.056,1.729
				c0.455,0.356,0.992,0.414,1.597-0.435c0.303-0.423,0.231-1.293,0.693-1.498c0.225-0.101,0.43,0.179,0.639,0.139
				C29.363,37.299,29.771,35.412,29.53,34.121z"/>
			<path d="M31.683,34.695c-0.38,0.359-1.079,0.624-1.313,0.354c-0.231-0.268,0.091-0.971,0.472-1.329s0.673-0.239,0.903,0.03
				C31.978,34.02,32.062,34.338,31.683,34.695z"/>
			<path d="M19.206,34.121c0.238-1.293,1.031-1.5,1.93-1.318c0.898,0.184,1.561,0.684,1.322,1.976
				c-0.094,0.504-0.735,0.986-0.592,1.522c0.147,0.553,1.037,0.752,1.39,1.247c0.604,0.849,0.4,1.372-0.056,1.729
				c-0.457,0.356-0.992,0.414-1.597-0.435c-0.303-0.423-0.231-1.293-0.693-1.498c-0.225-0.101-0.43,0.179-0.639,0.139
				C19.373,37.299,18.965,35.412,19.206,34.121z"/>
			<path d="M17.054,34.695c0.38,0.359,1.079,0.624,1.311,0.354c0.233-0.268-0.089-0.971-0.47-1.329s-0.673-0.239-0.902,0.03
				C16.759,34.02,16.675,34.338,17.054,34.695z"/>
		</g>
	</g>
	<polygon style="fill:#441E1F;" points="34.891,20.453 13.847,20.453 14.473,13.266 34.265,13.266 	"/>
	<path style="fill:#633C1F;" d="M34.965,20.398l0.003,0.055H13.925l0.004-0.071c-3.566,0.35-5.837,0.876-5.837,1.463
		c0,1.054,7.288,2.265,16.277,2.265s16.276-1.211,16.276-2.265C40.646,21.267,38.439,20.748,34.965,20.398z"/>
	<path style="fill:#633C1F;" d="M34.25,13.266c0,0,1.879-2.776,0.816-3.591c-1.065-0.814-3.083-0.785-4.854-2.082
		c-1.771-1.298-3.755-3.018-5.846-3.018c-2.09,0-4.072,1.72-5.842,3.018c-1.772,1.296-3.79,1.268-4.854,2.082
		c-1.063,0.815,0.816,3.591,0.816,3.591H34.25z"/>
</g>
<g id="Layer_1">
</g>
</svg>
