<?xml version="1.0" encoding="iso-8859-1"?>
<!-- Generator: Adobe Illustrator 15.1.0, SVG Export Plug-In . SVG Version: 6.00 Build 0)  -->
<!DOCTYPE svg PUBLIC "-//W3C//DTD SVG 1.1//EN" "http://www.w3.org/Graphics/SVG/1.1/DTD/svg11.dtd">
<svg version="1.1" xmlns="http://www.w3.org/2000/svg" xmlns:xlink="http://www.w3.org/1999/xlink" x="0px" y="0px" width="48px"
	 height="48px" viewBox="0 0 48 48" style="enable-background:new 0 0 48 48;" xml:space="preserve">
<g id="_x30_24_x5F_Spawn">
	<path style="fill-rule:evenodd;clip-rule:evenodd;fill:#3C404A;" d="M48,42.09c0,3.264-2.646,5.91-5.91,5.91H5.911
		C2.646,48,0,45.354,0,42.09V5.911C0,2.646,2.646,0,5.911,0H42.09C45.354,0,48,2.646,48,5.911V42.09z"/>
	<g>
		<path d="M33.336,10.406c-0.504-0.79-2.127-1.711-4.178-2.339c-1.435-0.439-3.076-0.735-4.698-0.735
			c-0.147,0-0.294,0.013-0.442,0.018c-0.147-0.005-0.295-0.018-0.442-0.018c-1.621,0-3.263,0.296-4.698,0.735
			c-2.05,0.627-3.673,1.549-4.178,2.339c-3.854,5.468-3.549,14.323-3.546,14.51c0.055,3.195,5.411,13.337,5.472,13.451
			c1.127,2.523,3.742,4.293,6.791,4.293c0.205,0,0.998,0,1.202,0c3.049,0,5.664-1.77,6.791-4.293
			c0.062-0.114,5.418-10.256,5.473-13.451C36.886,24.729,37.189,15.874,33.336,10.406z"/>
		<g>
			<path style="fill:#FFFFFF;" d="M13.023,24.459c0.049,2.88,5.607,13.46,5.672,13.523c0.413,0.658-2.681-8.32,1.738-8.367
				c1.66-0.018,2.545,2.131,2.545,1.673c0,0,0.025-12.555-0.002-12.619c-0.167-0.386-0.283,1.333-1.387,1.729
				c-3.47,1.206-4.209-1.62-4.825-5.017c-0.498-2.743,1.415-5.059,0.74-4.714c-1.866,0.956-3.307,5.369-3.307,5.369
				C13.146,18.722,13.02,24.308,13.023,24.459z"/>
			<path style="fill:#FFFFFF;" d="M33.84,16.037c0,0-1.441-4.413-3.307-5.369c-0.675-0.345,1.238,1.971,0.74,4.714
				c-0.617,3.396-1.355,6.223-4.826,5.017c-1.104-0.396-1.219-2.116-1.387-1.729c-0.027,0.064-0.002,12.619-0.002,12.619
				c0,0.458,0.885-1.69,2.545-1.673c4.42,0.047,1.325,9.025,1.738,8.367c0.064-0.063,5.623-10.643,5.672-13.523
				C35.018,24.308,34.892,18.722,33.84,16.037z"/>
		</g>
	</g>
	<g>
		<path style="fill:#FFC51B;" d="M27.318,27.352c0,0,2.85-2.774,4.434-3.269c1.582-0.496,0.631,1.982-0.535,2.351
			C30.053,26.801,27.318,27.352,27.318,27.352z"/>
		<path style="fill:#FFC51B;" d="M20.718,27.352c0,0-2.848-2.774-4.432-3.269c-1.582-0.496-0.631,1.982,0.535,2.351
			C17.986,26.801,20.718,27.352,20.718,27.352z"/>
	</g>
</g>
<g id="Layer_1">
</g>
</svg>
