<?xml version="1.0" encoding="iso-8859-1"?>
<!-- Generator: Adobe Illustrator 15.1.0, SVG Export Plug-In . SVG Version: 6.00 Build 0)  -->
<!DOCTYPE svg PUBLIC "-//W3C//DTD SVG 1.1//EN" "http://www.w3.org/Graphics/SVG/1.1/DTD/svg11.dtd">
<svg version="1.1" xmlns="http://www.w3.org/2000/svg" xmlns:xlink="http://www.w3.org/1999/xlink" x="0px" y="0px" width="48px"
	 height="48px" viewBox="0 0 48 48" style="enable-background:new 0 0 48 48;" xml:space="preserve">
<g id="_x30_45_x5F_Spiderman">
	<path style="fill-rule:evenodd;clip-rule:evenodd;fill:#C4DAE9;" d="M48,42.09c0,3.264-2.646,5.91-5.911,5.91H5.911
		C2.646,48,0,45.354,0,42.09V5.911C0,2.646,2.646,0,5.911,0h36.178C45.354,0,48,2.646,48,5.911V42.09z"/>
	<path style="fill:#E24C3B;" d="M35.878,14.801c0,0-0.463-1.484-1.262-3.011c-0.025-0.048-0.054-0.097-0.08-0.146
		c-0.09-0.167-0.18-0.334-0.277-0.5c-0.002-0.002-0.004-0.005-0.006-0.007c0-0.001,0-0.002,0-0.002
		c-0.014-0.028-0.035-0.051-0.049-0.078c-1.59-3.006-5.547-5.141-10.188-5.141c-0.002,0-0.002,0-0.002,0c-0.002,0-0.002,0-0.002,0
		c-4.644,0-8.601,2.135-10.188,5.141c-0.014,0.027-0.037,0.05-0.049,0.077c-0.002,0.001-0.002,0.002-0.002,0.003
		c-0.002,0.002-0.004,0.005-0.004,0.007c-0.1,0.166-0.189,0.333-0.277,0.5c-0.026,0.049-0.055,0.097-0.082,0.146
		c-0.797,1.527-1.26,3.011-1.26,3.011c-1.314,3.094-1.004,8.227-1.004,8.4c-0.033,5.518,4.416,13.791,5.616,15.895
		c0.032,0.069,0.088,0.133,0.125,0.201c0.106,0.188,0.207,0.377,0.347,0.553c0.127,0.165,0.285,0.317,0.436,0.471
		c0.08,0.08,0.146,0.166,0.232,0.242c0.196,0.18,0.42,0.342,0.647,0.502c0.063,0.047,0.118,0.098,0.187,0.142
		c0.219,0.146,0.457,0.275,0.696,0.405c0.093,0.047,0.175,0.104,0.267,0.15c0.197,0.098,0.404,0.177,0.606,0.262
		c0.149,0.062,0.293,0.133,0.446,0.189c0.14,0.051,0.283,0.084,0.427,0.131c0.224,0.069,0.442,0.146,0.67,0.2
		c0.082,0.021,0.162,0.03,0.244,0.048c0.284,0.063,0.571,0.123,0.854,0.158c0.133,0.018,0.26,0.016,0.393,0.027
		c0.225,0.017,0.451,0.043,0.668,0.043c0.003,0,0.005,0,0.007,0s0.002,0,0.004,0c0.22,0,0.444-0.026,0.671-0.043
		c0.131-0.012,0.26-0.01,0.393-0.027c0.283-0.035,0.57-0.096,0.857-0.158c0.079-0.02,0.159-0.027,0.241-0.048
		c0.226-0.056,0.446-0.131,0.672-0.202c0.142-0.045,0.285-0.078,0.425-0.129c0.151-0.057,0.295-0.128,0.444-0.189
		c0.204-0.085,0.411-0.164,0.606-0.262c0.092-0.047,0.176-0.104,0.267-0.15c0.239-0.13,0.478-0.259,0.698-0.405
		c0.066-0.044,0.121-0.095,0.188-0.142c0.225-0.16,0.448-0.322,0.645-0.501c0.088-0.077,0.154-0.163,0.234-0.245
		c0.15-0.152,0.309-0.304,0.436-0.469c0.138-0.176,0.24-0.365,0.345-0.553c0.039-0.068,0.095-0.132,0.127-0.201
		c1.2-2.104,5.647-10.377,5.616-15.895C36.88,23.028,37.192,17.895,35.878,14.801z"/>
	<path style="fill:none;stroke:#000000;stroke-width:0.5;stroke-linecap:round;stroke-linejoin:round;stroke-miterlimit:10;" d="
		M18.6,39.725c0,0,1.63-1.022,5.395-1.043c3.763-0.021,5.394,1.043,5.394,1.043"/>
	<path d="M35.188,24.671c-0.143,0.028-0.236,0.164-0.21,0.307c0.028,0.141,0.157,0.235,0.307,0.209
		c0.013-0.004,0.554-0.096,1.433,0.045c0.026-0.18,0.045-0.354,0.065-0.529C35.843,24.56,35.25,24.661,35.188,24.671z"/>
	<path d="M12.742,25.188c0.14,0.027,0.28-0.067,0.306-0.211c0.026-0.141-0.066-0.278-0.209-0.305
		c-0.062-0.01-0.656-0.111-1.596,0.032c0.021,0.177,0.039,0.354,0.066,0.533C12.188,25.096,12.729,25.185,12.742,25.188z"/>
	<path d="M15.604,12.561c0,0.009-0.007,0.015-0.005,0.024c0.003,0.016,0.284,1.517-0.693,3.487c-0.836,1.69-2.207,2.053-2.265,2.068
		c-0.141,0.035-0.227,0.177-0.191,0.318c0.029,0.119,0.137,0.199,0.254,0.199c0.021,0,0.041-0.002,0.063-0.007
		c0.068-0.016,1.66-0.426,2.609-2.345c0.643-1.295,0.78-2.391,0.787-3.075c1.892,2.361,3.301,5.092,4.29,7.422
		c-0.005,0.043-0.104,0.731-0.769,1.098c-0.619,0.344-1.223,0.286-1.227,0.286c-0.149-0.02-0.273,0.088-0.289,0.231
		c-0.015,0.144,0.088,0.272,0.23,0.289c0.009,0.001,0.072,0.008,0.176,0.008c0.268,0,0.807-0.045,1.363-0.355
		c0.416-0.229,0.662-0.551,0.813-0.838c1.051,2.604,1.539,4.552,1.551,4.603c0.029,0.119,0.137,0.199,0.255,0.199
		c0.021,0,0.041-0.002,0.063-0.007c0.103-0.025,0.157-0.112,0.177-0.211c0.057,0.007,0.121,0.011,0.192,0.011
		c0.238,0,0.536-0.049,0.791-0.24c0.095-0.07,0.172-0.158,0.241-0.256c0.068,0.098,0.146,0.186,0.241,0.256
		c0.255,0.191,0.552,0.24,0.791,0.24c0.065,0,0.125-0.004,0.179-0.009c0.021,0.097,0.074,0.184,0.177,0.209
		c0.021,0.005,0.042,0.007,0.063,0.007c0.118,0,0.226-0.08,0.255-0.199c0.013-0.051,0.499-1.994,1.549-4.596
		c0.15,0.286,0.395,0.604,0.809,0.832c0.557,0.311,1.096,0.355,1.364,0.355c0.103,0,0.165-0.007,0.174-0.008
		c0.144-0.017,0.246-0.146,0.23-0.289c-0.015-0.143-0.151-0.25-0.288-0.231c-0.004,0-0.608,0.059-1.227-0.286
		c-0.643-0.354-0.754-1.003-0.768-1.087c0.998-2.351,2.425-5.112,4.343-7.49c0.016,0.688,0.163,1.748,0.784,3.001
		c0.949,1.92,2.541,2.33,2.609,2.347c0.021,0.005,0.042,0.007,0.063,0.007c0.117,0,0.225-0.08,0.255-0.2
		c0.034-0.14-0.052-0.283-0.192-0.317c-0.015-0.003-1.422-0.366-2.265-2.069c-0.877-1.767-0.741-3.147-0.702-3.425
		c0.508-0.581,1.057-1.12,1.629-1.629c-0.086-0.153-0.189-0.297-0.288-0.445c-0.625,0.551-1.223,1.141-1.773,1.775
		c-0.017,0.002-0.03-0.009-0.048-0.004c-0.015,0.007-1.729,0.54-4.048-0.053c-2.273-0.579-3.398-2.168-3.659-2.583V5.931
		c-0.088-0.002-0.172-0.015-0.261-0.015c-0.002,0-0.002,0-0.002,0c-0.002,0-0.002,0-0.002,0c-0.089,0-0.173,0.013-0.261,0.014
		l0.002,3.545c-0.012,0.022-1.1,2.016-3.722,2.684c-2.276,0.582-3.964,0.08-4.036,0.057c-0.551-0.633-1.147-1.223-1.773-1.774
		c-0.098,0.148-0.201,0.291-0.287,0.444C14.522,11.408,15.085,11.962,15.604,12.561z M25.333,25.409
		c-0.039,0.011-0.467,0.114-0.756-0.104c-0.187-0.14-0.279-0.409-0.292-0.779c0-0.023,0.005-0.043,0.005-0.066
		c0-0.01-0.01-0.018-0.011-0.028l-0.001-4.041c0.259,0.225,0.626,0.45,1.141,0.555c0.282,0.057,0.55,0.079,0.789,0.079
		c0.268,0,0.492-0.028,0.67-0.059C26.044,22.999,25.544,24.657,25.333,25.409z M27.806,12.667c0.883,0.227,1.678,0.299,2.339,0.299
		c0.556,0,1.013-0.052,1.352-0.109c-1.929,2.396-3.364,5.162-4.375,7.528c-0.011,0.002-0.019-0.005-0.027-0.002
		c-0.007,0.002-0.7,0.226-1.571,0.048c-0.834-0.17-1.173-0.703-1.244-0.83l-0.002-9.139C24.87,11.176,25.994,12.206,27.806,12.667z
		 M23.755,24.512v0.023c-0.015,0.364-0.105,0.631-0.289,0.769c-0.304,0.232-0.769,0.104-0.773,0.103
		c-0.211-0.753-0.711-2.412-1.543-4.442c0.179,0.032,0.409,0.061,0.686,0.061c0.238,0,0.506-0.021,0.789-0.079
		c0.508-0.104,0.871-0.324,1.129-0.546l0.002,4.05c0,0.004-0.004,0.006-0.004,0.01C23.751,24.479,23.755,24.493,23.755,24.512z
		 M17.823,12.967c0.662,0,1.457-0.073,2.338-0.299c1.885-0.48,3.019-1.57,3.592-2.282v9.232c-0.088,0.151-0.429,0.649-1.234,0.813
		c-0.861,0.178-1.564-0.046-1.571-0.048c-0.014-0.005-0.026,0.005-0.04,0.003c-1.01-2.363-2.443-5.125-4.367-7.519
		C16.872,12.92,17.304,12.967,17.823,12.967z"/>
	<path d="M34.537,32.244c-0.001-0.001-0.003-0.001-0.004-0.003c-1.287-2.041-2.728-2.983-3.61-3.395
		c-0.008-0.024,0-0.052-0.014-0.075c-0.074-0.119-0.23-0.152-0.354-0.082c-0.262-0.1-0.432-0.139-0.462-0.145
		c-0.146-0.033-0.28,0.061-0.311,0.2c-0.03,0.142,0.061,0.28,0.2,0.312c0.002,0,0.012,0.003,0.015,0.004
		c-0.325,0.228-0.729,0.531-1.036,0.822c-0.732,0.693-1.107,1.396-1.306,1.907c-0.653-1.763-1.408-3.228-2.257-4.023
		c0.007-0.019,0.023-0.03,0.026-0.052c0-0.004,0.048-0.479,0.351-0.711c0.156-0.121,0.352-0.159,0.609-0.115
		c0.141,0.029,0.278-0.072,0.301-0.215c0.025-0.143-0.071-0.277-0.215-0.302c-0.402-0.067-0.744,0.007-1.018,0.218
		c-0.305,0.236-0.443,0.59-0.505,0.828c-0.302-0.189-0.612-0.302-0.935-0.302c-0.324,0-0.635,0.112-0.937,0.302
		c-0.062-0.238-0.2-0.592-0.505-0.828c-0.273-0.211-0.615-0.286-1.018-0.218c-0.144,0.024-0.24,0.159-0.215,0.302
		c0.022,0.143,0.164,0.244,0.301,0.215c0.254-0.044,0.452-0.006,0.609,0.115c0.303,0.232,0.352,0.707,0.352,0.711
		c0.002,0.021,0.019,0.033,0.025,0.053c-0.854,0.801-1.611,2.277-2.268,4.053c-0.193-0.514-0.57-1.23-1.316-1.938
		c-0.305-0.291-0.707-0.59-1.03-0.818c0.013-0.003,0.028-0.008,0.03-0.008c0.14-0.031,0.23-0.17,0.2-0.312
		c-0.032-0.14-0.167-0.237-0.31-0.2c-0.033,0.006-0.205,0.047-0.473,0.148l-0.004-0.002c-0.123-0.078-0.284-0.041-0.361,0.08
		c-0.016,0.027-0.008,0.058-0.016,0.086c-0.896,0.422-2.352,1.379-3.637,3.454c0.086,0.209,0.173,0.411,0.262,0.616
		c0.034-0.061,0.068-0.127,0.104-0.186c0.355,0.246,1.136,0.835,2.111,1.877c1.75,1.869,2.23,4.785,2.301,5.27
		c-0.055,0.275-0.104,0.539-0.154,0.803c0.146,0.12,0.295,0.24,0.453,0.352c0.063-0.326,0.127-0.66,0.195-1.008
		c0.018-0.042,0.043-0.083,0.037-0.133c0-0.005-0.004-0.021-0.004-0.033c0.459-2.283,1.079-4.922,1.83-7.165
		c0.014-0.007,0.027-0.001,0.04-0.011c0.011-0.008,1.125-0.82,3.358-0.832c0.016,0,0.031,0,0.047,0c2.205,0,3.383,0.826,3.395,0.834
		c0.01,0.008,0.021,0.006,0.031,0.011c0.885,2.638,1.588,5.827,2.059,8.335c0.158-0.111,0.305-0.23,0.451-0.35
		c-0.047-0.248-0.093-0.494-0.145-0.753c0.033-0.249,0.47-3.355,2.309-5.319c0.965-1.031,1.738-1.617,2.099-1.867
		c0.034,0.055,0.065,0.118,0.099,0.174c0.087-0.201,0.173-0.4,0.259-0.607c-0.015-0.021-0.027-0.048-0.042-0.07
		C34.537,32.247,34.538,32.245,34.537,32.244z M18.491,38.577c-0.307-1.203-0.939-2.983-2.188-4.317
		c-1.029-1.098-1.842-1.709-2.215-1.965c1.223-1.826,2.561-2.656,3.326-3.006c0.316,0.213,0.884,0.609,1.269,0.976
		c1.198,1.134,1.354,2.325,1.356,2.338c0.002,0.021,0.019,0.032,0.025,0.05C19.437,34.523,18.908,36.629,18.491,38.577z
		 M23.976,31.338c-1.528,0.008-2.567,0.362-3.141,0.634c0.906-2.491,1.982-4.331,3.18-4.331s2.275,1.844,3.183,4.337
		C26.606,31.702,25.531,31.332,23.976,31.338z M31.741,34.26c-1.26,1.348-1.895,3.149-2.197,4.352
		c-0.421-1.966-0.953-4.096-1.591-5.982c0.002-0.011,0.013-0.016,0.013-0.026c0.003-0.013,0.158-1.204,1.356-2.338
		c0.388-0.368,0.963-0.771,1.278-0.981c0.762,0.348,2.111,1.178,3.344,3.021C33.567,32.564,32.761,33.172,31.741,34.26z"/>
	<g>
		<path d="M35.759,17.2c0,0,2.396,8.944-2.168,11.745c-4.066,2.498-8.334-2.877-8.334-2.877s1.155-3.629,9.203-6.853L35.759,17.2z"
			/>
		<path style="fill:#FFFFFF;" d="M34.466,21.888c0,0,0.564,3.565-1.801,5.304c-2.751,2.018-5.77-1.254-5.77-1.254
			s1.441-1.751,4.197-3.03C32.908,22.065,34.466,21.888,34.466,21.888z"/>
	</g>
	<g>
		<path d="M12.269,17.2c0,0-2.396,8.944,2.17,11.745c4.066,2.498,8.332-2.877,8.332-2.877s-1.153-3.629-9.201-6.853L12.269,17.2z"/>
		<path style="fill:#FFFFFF;" d="M13.562,21.888c0,0-0.564,3.565,1.803,5.304c2.751,2.018,5.771-1.254,5.771-1.254
			s-1.442-1.751-4.198-3.03C15.122,22.065,13.562,21.888,13.562,21.888z"/>
	</g>
</g>
<g id="Layer_1">
</g>
</svg>
