<?xml version="1.0" encoding="utf-8"?>
<svg version="1.1" id="Layer_1" xmlns="http://www.w3.org/2000/svg" xmlns:xlink="http://www.w3.org/1999/xlink" x="0px" y="0px"
	 viewBox="0 0 612 792" enable-background="new 0 0 612 792" xml:space="preserve">
<path fill="#010101" d="M180.2,621.4v-0.9l2.9-9.4l1.4-1.7l8.6-1.7l-43.7-36.3c-2-0.9-4.3-0.9-6-2.6l-8.9-6.9L71,510.8
	c-1.1-0.6-2.6,0.3-2.6,1.7c0,0.9,0.6,1.4,0.9,2.3l71.2,62.9l2.9,12.3l35.7,31.4H180.2L180.2,621.4z M87.9,505.7L87.9,505.7
	c0-18.6,3.4-36.3,17.2-50c4-4.3,8.9-7.1,13.4-10.3c2.9-15.4,13.1-28.3,14.3-44c0-0.9-0.3-1.7-0.6-2.3c-7.1-41.4-0.3-80.3,20.9-116.9
	c-0.3,0-0.6-0.3-1.1-0.3c-0.6,0.3-1.1,0.6-1.7,1.1c-47.4,49.2-60.9,110.9-66,176.1c-1.1,15.4-1.7,31.2,2.6,46.6H87.9L87.9,505.7z
	 M116.5,536c0-18.3,0-36.6,1.7-54.9c6.6-66.6,32.6-123.5,84.6-167.2c1.1-1.1,2.6-2.3,4-2.3c-18.6,52.9-52.6,100.9-51.4,160.1
	c0,2.6,0.3,5.4,0,8c-5.7,2-10.6,5.1-15.1,8.9c-14.6,12.6-20,29.2-21.4,47.4H116.5L116.5,536L116.5,536z M135.9,546l-1.1-6.3l-2.9-24
	c0-2-0.3-3.7,0.6-5.7c4-9.1,11.4-15.4,19.7-20.3c1.1-0.6,2.3-1.1,3.4-0.9c0,0,0,0.6,0,0.3l2.6,33.7
	C148.5,528.5,141.9,536.8,135.9,546L135.9,546L135.9,546z M136.7,389.9l-1.1-14.6v-1.7l1.1-0.9l11.4-5.7L136.7,389.9L136.7,389.9
	L136.7,389.9z M155.3,556l-1.7,0.3l-10.6,4h-0.9l-5.7-4.9c10-5.7,21.4-8.9,32-13.2L372,455.9h0.9v0.6
	c-12.6,14.3-22.9,29.7-28.6,48.3c-9.7,32.6-3.4,64.3,4.6,96c-5.4-1.1-9.7-4.9-14.9-7.1c-47.5-21.7-94.3-14.3-140.9,2.9
	c-0.9,0.3-2,0.3-2.9-0.3c-3.4-2-6.3-4.6-9.4-7.1l-28.3-21.7l2.6-10.6L155.3,556L155.3,556L155.3,556z M329.4,261.8
	c-20.3-1.4-40.3-6-60.6-2c-34.9,6.6-64.9,20.9-85.8,50.6c-7.1,10-10.9,21.7-16.6,32.3c-14.9-10-11.7-26.3-14-40.9
	c0-1.1,0-2.3,0.3-3.1c2-5.4,5.4-10,8.3-14.9c4-6,9.1-10.9,13.7-16c-8.6-0.3-16,3.7-23.7,6.9c-3.1-22,7.1-39.4,18.9-56.3L294,152.1
	l1.7-0.3c-4.3,15.4-7.7,31.2-5.1,47.4c4,26,17.7,46.3,38.9,61.7V261.8L329.4,261.8L329.4,261.8z M193.6,131.8L193.6,131.8
	c-8.3,1.1-14.6,5.7-20.6,11.1c-3.7,2.3-8.9,1.4-11.4,5.7c-1.1,1.1-1.4,2.9-0.3,4c3.7,2.9,9.1-0.3,12.9-1.7c1.1-0.6,2.3-0.6,3.1-0.3
	c5.4,1.1,10.3,0.9,15.1-1.7c2.6-1.7,4.3-4.3,7.1-5.4c4-1.7,8.3-2.3,12-4.6c3.1-2,5.1-5.1,8.6-6.9c10.3-3.1,20.6-4.3,27.2-13.7
	c1.4-2.3,2.6-4.6,4.9-5.4c2.6-2,8.6-3.4,8-7.7c-0.3-1.7-2.3-2.3-3.7-2.3c-6.6-0.3-12.3,2.9-18,6.3c-1.7,1.1-4,1.4-6,2
	c-6.6,1.4-11.7,5.1-16.9,9.1C208.2,124.1,199.3,124.6,193.6,131.8L193.6,131.8z M164.8,516.5c-8.6-59.2-2-115.8,26-169.2
	c0.6-0.9,1.1-2,2-2.6c10.3-6.9,22-10.9,33.2-16.6L346,266.4h1.4c-1.1,15.4-8.6,29.4-10,44.9c-1.7,15.4,3.1,29.7,7.7,44.3
	c10,31.2,32.3,52.3,56.3,72.3c1.1,0.9,2,2,1.7,3.4c-74,0-144.6,13.1-207.8,54.3c-11.1,7.4-21.7,15.4-27.4,28
	C167.3,515.1,166.2,516.2,164.8,516.5L164.8,516.5L164.8,516.5z M213.9,708.6c-12.6-17.2-18.9-38.3-34.6-53.7
	c-0.6-0.9-1.7-1.7-1.7-3.1l8-33.2c0.9,0.6,1.7,0.9,2.3,1.4c18.6,20,26.9,44.9,34,70.3c1.1,2.3-0.6,4.6-1.4,6.9L213.9,708.6
	L213.9,708.6L213.9,708.6z M203.1,330.7L203.1,330.7l1.4-0.3l37.4-18.9l-4.6-32c0,0,0.3-0.3,0-0.3c-0.3-0.3-0.6-0.6-0.9-0.9
	c-20.9,6.3-38.9,16.6-48,37.7c2.9,0,5.4-1.7,7.7-3.1c5.4-2.9,11.1-8.3,17.4-8c1.4,0,2.9,1.4,2.3,2.9
	C211.9,316.1,203.6,321,203.1,330.7L203.1,330.7z M188.2,613.4c15.4-1.4,30.9,0,46,1.7c91.2,11.7,169.2,62.6,256.1,86
	c14.9,4,29.4,6.3,44.3,0.6c1.1-0.6,2.3-0.9,3.4,0l-0.3,2.6c-1.7,8.3-6.6,14.9-11.1,21.7c-1.4,2-3.1,3.7-5.4,4.9
	c-30.3,10.9-61.7,10.3-93.2,9.7c-68.3-0.9-128.3-36-194.4-45.4c-2-0.3-4-0.6-5.7-1.1l-1.1-0.6c-5.1-30-17.4-56.6-38.6-78.9V613.4
	L188.2,613.4L188.2,613.4z M236.8,474.2L236.8,474.2l-31.4,16.6c-2.9,1.7-5.7,3.4-8.9,4.9c0.6,8.3,2.9,15.7,7.4,22.6h1.4l53.7-22.3
	l-18.6-4.3l-1.4-1.4L236.8,474.2L236.8,474.2z M213.9,112.6v-1.7l-11.1-75.7c0.6-1.4,1.7-2.6,3.1-2.6v0.6l13.1,76.6
	c0,0-0.3,0.3,0,0.3C217.4,110.6,215.9,112.1,213.9,112.6L213.9,112.6L213.9,112.6z M231.1,608.8L231.1,608.8c0,0,0-0.6-0.3-0.3
	l-14.9-11.2c-2-0.6-4,0.9-5.7,1.1l1.1,1.4c3.4,2.6,6.9,5.7,11.1,7.7C225.1,608.6,228.2,608.6,231.1,608.8L231.1,608.8z M226.8,779.2
	L226.8,779.2h1.1c0.9-1.4,0.9-3.1,0.9-4.9c1.1-24-0.3-47.7-4-71.5c-0.6,0-0.9,0.3-1.1,0.3l-7.1,11.7c-0.6,0.9,0,2,0.3,3.1
	c6.6,18.9,6.9,38.9,8.6,58.3C225.4,777.5,225.9,778.3,226.8,779.2L226.8,779.2z M223.6,180.9L223.6,180.9l1.1-0.3
	c2-0.6,3.7-2,5.4-3.1c-0.3,0,0-0.3,0-0.3l-6-35.7l-0.6-3.4h-0.6c-1.7,1.1-3.1,2.3-4.9,2.9c-0.3,0.3,0.3,0.3,0,0.6L223.6,180.9
	L223.6,180.9z M336,768.6L336,768.6c-0.9,1.7-2,3.7-1.1,5.7c0.9,1.1,1.7,2,2.9,2.3c25.4,2,49.7-15.7,75.5-14.6
	c8,0,17.4-2.3,25.2,0.9c2.6,0.9,0.3,4.3,2.3,6c1.7,1.7,3.7,1.7,6,1.4l8.9-2.9h1.1c-0.3,1.7,0.9,3.4,2.6,3.7c4.9,1.4,9.4-2,14.3-1.7
	c4.3,0.3,8.6,1.7,12.9,1.4c5.7-0.3,10.6-2.3,15.7-4c3.4-1.1,6.9-1.1,10.3-2.3c-0.9-9.2,0.9-17.7,2.9-26.6c-3.4,0.3-6.6,1.4-10,2.3
	c-62.9,14.9-123.5,1.1-184.1-14.3c-30.9-7.7-60-22-92.3-24.6c4.3,27.2,4.6,54.3,2.9,81.7c2.9,1.1,5.7,1.4,8.9,1.7
	c9.7,1.1,18.6-2,27.7-5.1c13.4-4.9,25.7-13.1,40.3-16c2-0.6,4.3-0.9,6.6-0.6c1.1,0.3,2.3,1.1,3.4,2c-0.9,2-1.1,5.1,1.4,6
	c1.4,0.6,2.6,0.6,4,0.3l10-2.9H336L336,768.6z M281.4,618.3L281.4,618.3l-0.9-1.7l-38.6-24.3c-2.3-0.6-4.6,0.3-6.6,0.9
	c-0.3,0,0.6,0,0.3,0.3l36.3,22.9L281.4,618.3L281.4,618.3z M264.5,460.5L264.5,460.5l-20.3,10.9l-2.3,1.4c0,2.3-0.3,5.1,1.1,7.1
	l1.4-0.3l21.2-10.9L264.5,460.5L264.5,460.5z M324.3,268.4L324.3,268.4c-11.4-1.1-22.9-3.7-34.6-2.6c-6,0.6-12,0.3-18,1.7
	c-9.4,2.3-18.6,4.6-27.4,7.7l-0.3,1.1l4.9,30c-0.3,0,0.3,0.3,0,0.3c0.9,0.6,2,0.3,2.9-0.3c24.9-10.9,49.2-22.9,72.6-36.6V268.4
	L324.3,268.4z M267.7,491.9L267.7,491.9c0-1.7-0.9-3.7-0.3-5.4c2.3-4.3,8.3-4.6,11.7-1.1c-0.3,0.3,0.9-0.3,0.6,0l11.4-7.7l-21.2-4
	c-2.6,0-4.6,1.7-6.9,2.9l-19.4,11.4l22.3,4.9C266.5,492.5,267.1,492.5,267.7,491.9L267.7,491.9z M253.1,163.8L253.1,163.8l0.6-0.3
	l53.7-27.4l2.9-0.3c-9.4,14.6-12.6,31.4-12.6,48.6c0.6,0.9,1.7,1.1,2.6,0.6c8.6-3.1,16.3-8,25.4-10.3c16.3-4,32.6-2,48.9,0.3
	c0.6-1.1,0-2.6-0.9-3.1c-12-14.3-20.9-29.7-19.7-49.2c-1.1-10,3.7-18.9,5.4-28.3h-0.3l-100,50.6l-0.9,1.1
	c-3.4,5.1-4.3,11.4-5.4,17.4C252.5,163.5,253.4,163.5,253.1,163.8L253.1,163.8z M287.4,98.1c-1.7,2-3.7,4-6.6,4.9
	c-5.4,1.4-11.1,0.6-16.3-1.4l-1.4-0.9l1.4-2l79.7-34.3c1.1,0.3,2,0.6,2.3,1.7c0,1.7-1.1,3.1-2.3,4.3c-5.4,8-15.4,7.4-22.9,12
	c-5.7,6.3-14.3,10-22.9,10.3C296,96.1,291.7,97.8,287.4,98.1L287.4,98.1L287.4,98.1z M297.1,463.9L297.1,463.9l-26.6-5.1h-1.1
	c0.3,2,0.3,4,0.9,6c0.3,1.1,1.1,1.4,2,2l22,4.6c1.4,0,2.6,0,3.7-0.6C297.7,468.5,297.1,466.2,297.1,463.9L297.1,463.9z M282.5,13.7
	L282.5,13.7l-2.3,0.9v0.6l10.9,63.5l0.6,1.1l4-1.7L282.5,13.7L282.5,13.7z M306.8,624.6L306.8,624.6l-4.6-29.2l-18.3-3.1h-3.7
	l3.7,26.6L306.8,624.6L306.8,624.6z M287.4,455.6L287.4,455.6c-0.3,0,0.9-0.3,0.6,0l14,2.3l3.4,16.3l0.6,1.4l4.3-1.4l88-36.9
	l0.6-0.3c-0.3-1.1-1.7-1.4-2.9-1.4c-37.4-0.6-74.3,1.4-108.6,18.9V455.6L287.4,455.6z M298,118.9c0.3,0-0.3-0.3,0-0.6l-2.9-16
	c1.7-0.9,3.4-1.4,5.1-2l0.3,1.1l3.1,14.6C302,117.2,300.2,118.6,298,118.9L298,118.9L298,118.9z M312.5,204.7L312.5,204.7h1.4
	c2.3-0.6,4.3-1.7,6.3-3.1c-0.3-2.3-1.4-4.6-1.1-7.1c0.9-4.3,4.9-7.4,4.3-12c-7.1,1.7-14.6,3.4-20.9,7.4c1.4,2.9,4.3,4.3,6.9,5.4
	c0.9,0.3,1.4,0.9,2,1.4L312.5,204.7L312.5,204.7z M362.3,250.7L362.3,250.7l-6.3,13.4l-0.6,1.1c0.6,0.3,1.1,0.3,1.7,0L388,251
	l1.7-0.3l0.9,1.1c0.6,4-0.3,7.7-0.6,11.7c-1.1,12-2.3,24,4.6,34.9c13.7-3.7,27.4-4.6,41.4-6.6c-17.7-16-34.9-32.3-43.7-55.2
	c-6.9-17.7-9.1-36.3-8-55.5h-1.1L308,214.1l-2.6,1.4c6.6,18.3,16.3,34.3,33.7,44c1.4,0.9,2.9,0.6,4.3,0L362.3,250.7L362.3,250.7z
	 M310,624L310,624c0.6,0,1.1,0,1.7-0.3l25.4-20.3l0.9-0.6c-1.4-0.9-3.1-1.4-4.6-1.4l-23.2,18l-0.9,0.9
	C308.8,621.7,309.7,622.8,310,624L310,624z M492.3,387L492.3,387v-1.4c-35.2-4.3-64.3-20-86-48c-16.3-20.9-25.7-43.7-22.6-70.6
	c0.3-2.6,0.9-4.9,0.9-7.1H384L352.6,275l-0.9,0.9c-0.6,1.4-0.9,2.9-1.4,4.3c-9.1,28.6-6.3,56,7.1,82.6c6.6,12.6,14.3,24.3,24,34.9
	C418.6,395.9,454.9,387,492.3,387L492.3,387z M347.7,639.4L347.7,639.4l4.3,1.1l21.7-36.6c0.6-2.6,0.3-5.4,0.3-8l-0.9,0.3l-0.3,0.9
	L348,637.7L347.7,639.4L347.7,639.4z M353.4,578.5L353.4,578.5c2.3,0,4-1.4,6-2.3c56.6-27.7,117.2-26.9,177.8-24.9v-0.9
	c-31.2-24.9-50.9-56-56-96c-1.4-13.4,0.6-26.3,4-39.2l1.7-1.4l28.3-12h0.3c-0.3-2.6-1.1-4.9-1.7-7.1h-1.4c-6.3,1.7-12,5.1-18,7.7
	c-33.2,14.9-68.9,24.6-100.3,44c-22.6,14.3-34,35.7-40,60.9C348.3,531.1,350.3,554.8,353.4,578.5L353.4,578.5z M411.7,662.9
	L411.7,662.9l-14-70.6c-1.7-6.9-2.9-14-4.3-21.2l-3.1,0.3l-12,4.3l-1.4,0.9l1.1,5.4l12.6,72.9L411.7,662.9L411.7,662.9z
	 M404.3,419.3L404.3,419.3c1.4,0,2.9-0.9,4.3-1.4c23.7-10.6,49.5-11.4,74.3-17.7c-1.7-2-3.1-4.6-5.1-6c-0.9-0.3-1.7-0.3-2.6-0.3
	c-28.9,1.7-57.7,2.6-85.8,11.1l1.4,1.7L404.3,419.3L404.3,419.3z M445.7,569.4l-28.9,9.4l-14.9-7.1l-1.4-1.1c0.6-0.9,1.4-1.4,2.3-2
	l20.3-6.6c2.3-0.9,4.9-0.6,6.9,0.3L445.7,569.4L445.7,569.4L445.7,569.4z M461.2,367L461.2,367c-4.3-11.4-9.1-23.2-8.9-35.4
	l-1.1-0.3l-18,5.4l-0.6,0.3c-2.6-7.7-0.6-16.9,0.3-24.6c0.3-0.9,0.9-1.4,1.4-2l20.9-6.6l0.3-0.3c0.9-1.4,0.9-3.4,0-5.1h-2L402,315
	l0.3,1.1c0.9,2.3,2,4,3.4,6C418.9,343.6,429.4,368.5,461.2,367L461.2,367z M445.5,660.3L445.5,660.3l-13.7-77.2l-0.6-1.1l-1.4,0.3
	l-10.6,3.4l12.3,70L445.5,660.3L445.5,660.3z M518.3,699.7L518.3,699.7v-1.4c-3.1-2.9-7.4-4-11.4-5.4c-9.1-3.4-19.2-4.3-27.7-8.9
	c-2.6-0.9-2.3-3.7-3.4-6c-12.3-3.7-26.6-13.7-40.6-12c-2,0.9-3.4,2.9-4.9,4.3v1.4c12.3,6.9,26,10.6,38.9,15.4
	c15.2,5.7,30,12,46.3,12.6H518.3L518.3,699.7z M451.7,644.9L451.7,644.9h1.1c3.7-6.9,10.9-7.1,17.4-9.4c4-1.7,4-6,5.4-9.4
	c1.1-2.3,3.1-3.7,5.4-4.6c4.3-1.4,8.3-0.6,12.3,0.9c0.9,0.3,1.7,0.3,2.6,0.6c-0.3,0,0.3-0.9,0-0.6l-7.4-32.3l-1.4-1.4
	c-6.3,1.7-16,2.6-19.7,9.4c-0.9,2,0,4.3,0.6,6.3l-1.1,0.9l-7.7,3.1c-2.6,1.4-4,4.3-2.6,7.1c1.7,2.3,0,4.9-2.3,6.3
	c-2.6,1.7-3.4,4.3-3.7,7.1l1.1,15.2V644.9L451.7,644.9z M474.3,670.9L474.3,670.9l16.6-22.6c1.1-2.3,0.3-4.9-0.9-7.1l-0.9,0.9
	c-6.6,8.9-12.3,19.2-20.6,27.2l0.9,0.6C471.2,670.3,472.6,670.9,474.3,670.9L474.3,670.9z M486.3,583.1c-1.7-0.3-3.4,0.9-5.2,0
	c0,0-0.3-0.3,0-0.3l-6.6-29.4l5.4,0.3l0.3,2l6,26.6V583.1L486.3,583.1L486.3,583.1z M492,629.7L492,629.7c-0.3,0,0.3,0.3,0,0.6
	l12.3,54.3c0.9,2.3,4,2.6,6.3,2.9l-0.3-0.9l-12.6-53.7C496.9,630.6,494.3,629.4,492,629.7L492,629.7z M498.9,676.9L498.9,676.9h-0.9
	l-4.3,5.7c1.4,1.1,3.4,1.1,5.1,1.4l1.1-0.9C499.8,680.9,499.5,678.9,498.9,676.9L498.9,676.9z M501.8,627.7L501.8,627.7h1.1
	c12-22.3,19.4-46,19.4-72l-4.3-0.3c0,22.9-8.6,43.7-16.9,64.3C500.3,622.6,501.5,625.1,501.8,627.7L501.8,627.7z M509.2,662.6
	L509.2,662.6h1.1l0.9-1.1c14.6-33.2,28.6-66.3,23.2-103.8c-1.4-0.6-2.9-0.6-4.6-0.6c0,34.6-10.6,66.9-21.2,98.9
	C507.8,658.3,508.9,660.6,509.2,662.6z"/>
</svg>
